<svg width="48" height="48" viewBox="0 0 48 48" fill="none" xmlns="http://www.w3.org/2000/svg">
<g clip-path="url(#clip0_7_381)">
<path d="M44.4469 0.000732422H3.54375C1.58437 0.000732422 0 1.54761 0 3.46011V44.532C0 46.4445 1.58437 48.0007 3.54375 48.0007H44.4469C46.4062 48.0007 48 46.4445 48 44.5414V3.46011C48 1.54761 46.4062 0.000732422 44.4469 0.000732422ZM14.2406 40.9039H7.11563V17.9914H14.2406V40.9039ZM10.6781 14.8695C8.39062 14.8695 6.54375 13.0226 6.54375 10.7445C6.54375 8.46636 8.39062 6.61948 10.6781 6.61948C12.9563 6.61948 14.8031 8.46636 14.8031 10.7445C14.8031 13.0132 12.9563 14.8695 10.6781 14.8695ZM40.9031 40.9039H33.7875V29.7664C33.7875 27.1132 33.7406 23.6914 30.0844 23.6914C26.3812 23.6914 25.8187 26.5882 25.8187 29.5789V40.9039H18.7125V17.9914H25.5375V21.1226H25.6312C26.5781 19.3226 28.9031 17.4195 32.3625 17.4195C39.5719 17.4195 40.9031 22.1632 40.9031 28.332V40.9039Z" fill="white"/>
</g>
<defs>
<clipPath id="clip0_7_381">
<rect width="48" height="48" fill="white" transform="translate(0 0.000732422)"/>
</clipPath>
</defs>
</svg>
