<svg width="48" height="48" viewBox="0 0 48 48" fill="none" xmlns="http://www.w3.org/2000/svg">
<path fill-rule="evenodd" clip-rule="evenodd" d="M0.263794 23.9738C0.263794 37.0682 10.8787 47.6832 23.9732 47.6832C37.0676 47.6832 47.6825 37.0682 47.6825 23.9738C47.6825 10.8794 37.0676 0.264404 23.9732 0.264404C10.8787 0.264404 0.263794 10.8794 0.263794 23.9738ZM23.9732 23.7535C22.7082 21.1365 19.2619 16.2592 16.058 13.8541C13.746 12.1185 10.0005 10.7755 10.0005 15.0485C10.0005 15.902 10.4894 22.2177 10.7766 23.243C11.7739 26.8078 15.4089 27.7167 18.6423 27.1666C12.9905 28.1282 11.5532 31.3147 14.6581 34.5007C20.5552 40.5517 23.1338 32.9827 23.7946 31.043L23.7946 31.0428L23.7959 31.039C23.9162 30.686 23.9722 30.5217 23.9732 30.6624C23.9743 30.5217 24.0298 30.6848 24.1492 31.0353L24.1518 31.0428C24.8125 32.9823 27.3916 40.5519 33.2884 34.5007C36.3938 31.3147 34.9559 28.1287 29.3041 27.1666C32.5376 27.7167 36.1725 26.8078 37.1698 23.243C37.4565 22.2177 37.9459 15.902 37.9459 15.0485C37.9459 10.7755 34.2004 12.1185 31.8885 13.8541C28.6845 16.2592 25.2388 21.1365 23.9732 23.7535Z" fill="white"/>
</svg>
