<svg width="48" height="63" viewBox="0 0 48 63" fill="none" xmlns="http://www.w3.org/2000/svg">
<g id="Group 3">
<g id="Group">
<path id="Vector" d="M2.19021 56.0835L1.27249 52.6051H0V57.2929H0.856148L0.768188 53.4417L1.7856 57.2929H2.57431L3.58292 53.4417L3.50082 57.2929H4.35697V52.6051H3.08448L2.19021 56.0835Z" fill="#1E1E1E"/>
<path id="Vector_2" d="M6.46805 52.6049L4.89062 57.2927H5.82594L6.09861 56.3769H7.85782L8.1305 57.2927H9.06581L7.46786 52.6049H6.47391H6.46805ZM6.33024 55.6137L6.98115 53.4562L7.62326 55.6137H6.33024Z" fill="#1E1E1E"/>
<path id="Vector_3" d="M13.2938 52.6049H12.2705L11.4612 53.9464L10.6139 52.6049H9.60528L10.9511 54.7507L9.37952 57.2927H10.394L11.4612 55.5579L12.5578 57.2927H13.5576L11.9743 54.7507L13.2938 52.6049Z" fill="#1E1E1E"/>
<path id="Vector_4" d="M18.1609 54.3779H16.1495V52.6049H15.2758V57.2927H16.1495V55.1616H18.1609V57.2927H19.0434V52.6049H18.1609V54.3779Z" fill="#1E1E1E"/>
<path id="Vector_5" d="M21.1398 52.6049L19.5624 57.2927H20.4977L20.7704 56.3769H22.5266L22.7993 57.2927H23.7346L22.1367 52.6049H21.1427H21.1398ZM20.9991 55.6137L21.65 53.4562L22.2921 55.6137H20.9991Z" fill="#1E1E1E"/>
<path id="Vector_6" d="M25.5085 56.3035L24.4618 52.6049H23.5411L24.9192 57.2927H26.1008L27.4319 52.6049H26.523L25.5085 56.3035Z" fill="#1E1E1E"/>
<path id="Vector_7" d="M28.7747 55.2468H31.0295V54.4894H28.7747V53.3887H31.2406V52.6049H27.9127V57.2927H31.4077V56.5031H28.7747V55.2468Z" fill="#1E1E1E"/>
<path id="Vector_8" d="M33.0028 52.5991H32.1202V57.2927H34.8587V56.4972H33.0028V52.5991Z" fill="#1E1E1E"/>
<path id="Vector_9" d="M36.7968 52.6049L35.2194 57.2927H36.1547L36.4273 56.3769H38.1836L38.4563 57.2927H39.3916L37.7937 52.6049H36.7997H36.7968ZM36.656 55.6137L37.307 53.4562L37.952 55.6137H36.659H36.656Z" fill="#1E1E1E"/>
<path id="Vector_10" d="M41.2798 52.6049L39.7024 57.2927H40.6377L40.9104 56.3769H42.6667L42.9393 57.2927H43.8746L42.2767 52.6049H41.2827H41.2798ZM41.142 55.6137L41.7929 53.4562L42.435 55.6137H41.142Z" fill="#1E1E1E"/>
<path id="Vector_11" d="M46.9592 55.3877C47.226 55.3084 47.8827 54.9943 47.8827 54.099C47.8827 53.5531 47.657 53.1832 47.3667 52.9425C46.9562 52.6108 46.537 52.6108 45.9154 52.602H44.423V57.2898H45.2909V55.5491H46.0737L47.0031 57.2898H48.0059L46.965 55.3847L46.9592 55.3877ZM46.1705 54.8153C46.0063 54.8211 45.8919 54.8299 45.5928 54.8299H45.2879V53.3623H45.6925C46.2115 53.3623 46.4373 53.3681 46.622 53.4621C46.9856 53.647 46.9944 53.9934 46.9944 54.0932C46.9944 54.7771 46.364 54.8123 46.1705 54.8182V54.8153Z" fill="#1E1E1E"/>
</g>
<g id="Group_2">
<path id="Vector_12" d="M42.8279 6.27881C41.5437 6.27881 40.5028 5.23381 40.5028 3.95105C40.5028 2.66829 41.5466 1.62329 42.8279 1.62329C44.1092 1.62329 45.1501 2.66829 45.1501 3.95105C45.1501 5.23381 44.1092 6.27881 42.8279 6.27881ZM42.8279 1.90802C41.702 1.90802 40.7872 2.82386 40.7872 3.95105C40.7872 5.07823 41.702 5.99407 42.8279 5.99407C43.9538 5.99407 44.8656 5.07823 44.8656 3.95105C44.8656 2.82386 43.9509 1.90802 42.8279 1.90802Z" fill="#1E1E1E"/>
<path id="Vector_13" d="M41.787 2.54501H43.1445C43.8599 2.54501 43.9919 3.07338 43.9919 3.30528C43.9919 3.60175 43.8423 3.85713 43.5755 3.94519C43.7954 4.04206 43.9156 4.12425 43.9156 4.6262C43.9156 5.01954 43.9156 5.11641 44.0358 5.16337V5.23382H43.4143C43.3761 5.10467 43.3527 4.9667 43.3527 4.69078C43.3527 4.32385 43.3292 4.18002 42.9158 4.18002H42.3353V5.23382H41.787V2.54501ZM42.995 3.72797C43.2882 3.72797 43.4289 3.62817 43.4289 3.36105C43.4289 3.21722 43.3644 3.0088 43.036 3.0088H42.3353V3.72797H42.995Z" fill="#1E1E1E"/>
</g>
<path id="Vector_14" d="M16.9441 48.971L16.9881 48.9592C17.3634 48.8418 18.2958 48.4074 18.2958 47.1276C18.2958 46.3438 17.9762 45.8213 17.5628 45.4808C16.9764 45.0082 16.387 45.0082 15.4634 44.9965H13.3348V51.7655H14.4695V49.1999H15.742L17.1112 51.7655H18.4218L16.9001 48.9827L16.9441 48.971ZM16.5923 48.0933C16.3049 48.2401 15.9912 48.2547 15.8475 48.2606C15.6042 48.2694 15.4341 48.2812 14.9914 48.2812H14.4666V45.9651H15.138C15.9003 45.9651 16.2434 45.9739 16.5424 46.1207C17.1083 46.4084 17.1318 46.9485 17.1318 47.1099H17.123L17.1347 47.1187C17.1347 47.6442 16.8796 47.9436 16.5952 48.0904L16.5923 48.0933ZM1.13469 46.0062H4.42441V44.9965H0V51.7684H1.13469V48.8389H4.02272V47.879H1.13469V46.0062ZM10.8045 51.7684H11.9304V44.9965H10.8045V51.7684ZM6.32142 44.9965L4.04325 51.7655H5.2659L5.66758 50.4122H8.3709L8.77552 51.7655H9.99523L7.68774 44.9965H6.32729H6.32142ZM8.07183 49.4348H5.96372L7.0251 45.9182L8.04251 49.3408L8.07183 49.4348ZM40.8899 45.5219C40.1832 45.017 39.4825 45.0082 38.8873 44.9965H36.486V51.7655H38.6234C39.4356 51.7566 40.1422 51.7449 40.8107 51.3545C41.7959 50.788 42.1917 49.6109 42.1917 48.4426C42.1917 47.6765 42.0158 46.3144 40.8899 45.5219ZM40.9661 48.4661C40.9661 49.9103 40.4119 50.3888 39.89 50.5884C39.5822 50.6999 39.2303 50.7498 38.2481 50.7498H37.6265V46.0238H38.3859C39.2538 46.0326 39.4796 46.0444 39.8666 46.2176C40.8693 46.7019 40.9661 47.7998 40.9661 48.4514V48.4632V48.4661ZM32.2111 44.9994L29.9329 51.7713H31.1556L31.5543 50.4181H34.2606L34.6623 51.7713H35.8849L33.5774 45.0023H32.217L32.2111 44.9994ZM31.8534 49.4377L32.9119 45.924L33.9615 49.4377H31.8534ZM47.8651 46.0092V44.9994H43.1006V51.7684H47.8505V50.7498H44.2236V48.7479H47.5514V47.7821H44.2236V46.0062H47.8651V46.0092ZM18.6857 46.0268H20.5534V51.7684H21.6998V46.0268H23.6086V44.9994H18.6857V46.0268ZM28.0066 48.9739L28.0476 48.9622C28.4259 48.8447 29.3553 48.4132 29.3553 47.1305C29.3553 46.3497 29.0328 45.8272 28.6165 45.4837C28.033 45.0111 27.4436 45.0111 26.5201 44.9994H24.3914V51.7684H25.5261V49.1999H26.7986L28.1708 51.7684H29.4785L27.9597 48.9856L28.0066 48.971V48.9739ZM27.6518 48.0962C27.3645 48.243 27.0508 48.2577 26.91 48.2635C26.6667 48.2753 26.4966 48.2841 26.0539 48.2841H25.529V46.0444V45.971H26.2005C26.9628 45.971 27.3058 45.9798 27.6049 46.1266C28.1679 46.4143 28.1942 46.9456 28.1913 47.1129V47.1246C28.1913 47.65 27.9392 47.9495 27.6518 48.0962ZM44.7073 20.803C44.7073 9.31397 35.4041 0 23.9311 0C12.4581 0 3.15485 9.31397 3.15485 20.8001C3.15485 32.2863 12.4552 41.6002 23.9311 41.6002C35.407 41.6002 44.7073 32.2921 44.7073 20.8001V20.803Z" fill="#1E1E1E"/>
<path id="Vector_15" d="M38.3332 33.1023C41.1215 29.8088 42.8045 25.438 42.8045 20.7825C42.8045 18.443 42.3793 16.2033 41.6053 14.1368C39.0515 7.09482 32.044 1.85223 24.1305 1.85223C23.9897 1.85223 23.6174 1.86104 23.6174 1.86104C22.1455 1.91388 20.6707 2.17513 19.4627 2.54498C18.8968 2.71817 16.8913 3.40799 15.4195 4.9109C13.8714 6.51362 12.9214 8.69167 12.9214 11.0957C12.9214 15.0174 15.6218 18.2522 19.2575 19.7346C20.8202 20.351 22.5267 20.7385 23.7816 21.0438C25.9601 21.5751 30.5457 22.3412 34.3661 24.8656L34.5127 24.9625C36.8994 26.5916 38.339 28.9898 38.339 32.8763M26.737 19.3383C23.9927 19.3383 21.7673 17.1133 21.7673 14.3658C21.7673 11.6182 23.9897 9.39029 26.737 9.39029C29.4843 9.39029 31.7039 11.6182 31.7039 14.3658C31.7039 17.1133 29.4785 19.3383 26.737 19.3383Z" fill="#0FC0FC"/>
<path id="Vector_16" d="M4.99902 20.85C4.99902 15.8276 6.98693 11.2161 10.1916 7.82867C9.78407 8.88248 9.20353 10.7993 9.20353 13.0184C9.20353 15.5458 9.95119 18.5223 12.5343 21.2492L13.0064 21.7512C16.689 25.6376 20.0021 29.1219 20.0021 33.7686C20.0021 35.3567 19.6122 37.0798 18.7208 38.9995C10.8161 36.751 5.00196 29.4742 5.00196 20.85" fill="#D4FF47"/>
<g id="Group_3">
<path id="Vector_17" d="M12.6429 58.8866V60.0373H14.5722V60.777H12.6429V62.7349H11.7867V58.1146H14.839V58.8866H12.6429Z" fill="#808080"/>
<path id="Vector_18" d="M17.9 62.7349L16.991 61.0207H16.2141V62.7349H15.3579V58.1146H17.2461C17.4543 58.1146 18.0759 58.1352 18.4893 58.6782C18.7561 59.0305 18.7708 59.4297 18.7708 59.5823C18.7708 59.6557 18.7649 59.8847 18.6857 60.0989C18.6124 60.2897 18.3925 60.689 17.8618 60.8504L18.8881 62.7349H17.9ZM17.6068 58.9982C17.4572 58.9013 17.2813 58.8602 16.9148 58.8602H16.2141V60.2985H16.5219C17.0262 60.2985 17.34 60.2985 17.5481 60.187C17.6801 60.1136 17.8941 59.9434 17.8941 59.5706C17.8941 59.4532 17.8824 59.1772 17.6068 58.9952V58.9982Z" fill="#808080"/>
<path id="Vector_19" d="M22.4035 62.7349L22.1367 61.8308H20.4039L20.1371 62.7349H19.2076L20.7704 58.1146H21.7497L23.3242 62.7349H22.4035ZM21.2718 58.9453L20.6326 61.0735H21.908L21.2747 58.9453H21.2718Z" fill="#808080"/>
<path id="Vector_20" d="M26.6461 62.7349L24.626 59.4943L24.6788 62.7349H23.8344V58.1146H24.6113L26.6579 61.3729L26.5523 58.1146H27.4026V62.7349H26.6432H26.6461Z" fill="#808080"/>
<path id="Vector_21" d="M31.8271 62.0686C31.6101 62.3445 31.1088 62.8523 30.1793 62.8523C30.021 62.8523 29.6516 62.8406 29.2528 62.6557C28.7309 62.4062 28.0243 61.778 28.0243 60.4101C28.0243 60.1606 28.0243 59.5001 28.4494 58.8925C28.6723 58.5726 29.2 57.9972 30.2145 57.9972C31.097 57.9972 31.5603 58.4346 31.7714 58.7311C31.9209 58.9542 32.0118 59.1831 32.091 59.4238L31.2348 59.6469C31.229 59.5882 31.2026 59.4385 31.1176 59.28C30.9416 58.9512 30.5957 58.7839 30.2292 58.7898C29.9682 58.7898 29.7835 58.869 29.6926 58.9131C29.3525 59.0833 28.9596 59.5295 28.9596 60.3925C28.9596 60.5246 28.9655 61.0735 29.2352 61.4845C29.3261 61.6224 29.4375 61.7398 29.5695 61.825C29.8451 62.0158 30.1178 62.0334 30.2438 62.0334C30.6045 62.0334 30.8713 61.8895 31.0941 61.6136C31.185 61.5021 31.2583 61.3641 31.2759 61.3318C31.3023 61.2731 31.3228 61.2203 31.3609 61.1029L32.179 61.4434C32.0822 61.6782 31.9884 61.8631 31.833 62.0657L31.8271 62.0686Z" fill="#808080"/>
<path id="Vector_22" d="M32.6304 62.7349V58.1146H35.9113V58.8866H33.4807V59.9727H35.709V60.7183H33.4807V61.9541H36.0755V62.732H32.6304V62.7349Z" fill="#808080"/>
</g>
</g>
</svg>
